<?xml version="1.0" standalone="no"?>
<!DOCTYPE svg PUBLIC "-//W3C//DTD SVG 20010904//EN"
 "http://www.w3.org/TR/2001/REC-SVG-20010904/DTD/svg10.dtd">
<svg version="1.0" xmlns="http://www.w3.org/2000/svg"
 width="1080.000000pt" height="1080.000000pt" viewBox="0 0 1080.000000 1080.000000"
 preserveAspectRatio="xMidYMid meet">

<g transform="translate(0.000000,1080.000000) scale(0.100000,-0.100000)"
fill="#000000" stroke="none">
<path d="M4604 9387 c-131 -132 -156 -175 -190 -330 -37 -160 -74 -250 -74
-176 0 54 -34 178 -71 255 l-33 69 -9 -105 c-11 -130 0 -199 49 -298 l36 -73
-26 -107 c-13 -59 -26 -116 -29 -127 -2 -11 -7 16 -11 60 -15 165 -33 243 -71
313 -20 37 -40 70 -43 74 -4 4 -7 -62 -7 -145 1 -169 10 -205 81 -323 l36 -59
-9 -100 -8 -100 -49 145 c-27 80 -55 159 -63 175 -18 38 -76 125 -83 125 -3 0
-5 -57 -5 -128 0 -123 1 -129 32 -192 17 -36 63 -103 101 -150 l69 -85 7 -90
6 -90 -35 60 c-20 33 -53 80 -73 105 -41 50 -183 190 -193 190 -13 0 69 -209
100 -259 19 -28 78 -93 132 -144 94 -89 108 -108 123 -170 5 -23 -3 -17 -61
41 -49 50 -82 74 -118 87 -27 9 -84 34 -125 53 -41 20 -79 38 -84 41 -6 2 6
-18 26 -45 20 -27 54 -77 76 -110 23 -34 63 -80 89 -103 55 -47 175 -109 227
-118 26 -4 37 -12 47 -35 6 -16 9 -31 7 -34 -14 -13 -69 -4 -127 21 -42 18
-102 32 -170 41 -58 7 -126 20 -150 29 -43 15 -44 15 -27 -3 9 -11 54 -45 99
-77 45 -32 86 -62 91 -66 5 -4 -25 -17 -65 -29 -558 -161 -936 -356 -1227
-634 -235 -225 -379 -497 -431 -817 -25 -151 -25 -166 -5 -300 19 -132 46
-239 85 -337 243 -616 932 -1042 2014 -1247 172 -32 476 -75 534 -75 l28 0 6
-97 c6 -109 31 -208 76 -304 l30 -64 -30 -3 c-77 -8 -427 60 -739 144 -529
143 -1407 446 -2171 750 l-97 38 -4 107 c-6 135 -30 191 -121 276 -61 56 -157
113 -194 113 -10 1 -52 39 -93 87 -148 169 -393 378 -590 501 -52 33 -96 66
-98 74 -2 8 16 39 39 68 52 66 115 96 258 122 170 31 185 37 189 77 3 24 -11
63 -54 148 -55 110 -56 117 -51 176 3 39 21 102 48 172 35 91 43 122 43 180 1
62 -3 77 -33 130 -65 115 -124 157 -220 157 -110 0 -205 -55 -333 -191 -126
-134 -182 -266 -181 -431 0 -121 20 -195 88 -335 68 -138 87 -218 87 -360 0
-122 -13 -191 -67 -349 -41 -121 -60 -231 -51 -304 8 -63 39 -143 68 -168 10
-10 164 -100 341 -200 177 -99 322 -186 322 -192 0 -7 -63 -78 -140 -159 -202
-212 -226 -249 -204 -313 15 -41 43 -56 179 -96 146 -42 487 -162 820 -289
499 -190 739 -290 1072 -451 393 -189 673 -298 987 -385 843 -232 1667 -204
2511 86 213 73 415 158 680 285 344 165 548 253 975 417 393 152 832 306 1017
358 106 30 136 77 100 158 -20 45 -75 108 -246 285 -60 62 -96 106 -90 112 5
5 151 88 324 185 186 104 328 190 347 210 80 84 83 254 8 465 -48 136 -65 227
-65 346 0 137 21 227 83 350 114 228 124 420 31 609 -92 187 -301 356 -442
356 -106 1 -175 -46 -232 -157 -50 -97 -48 -153 9 -299 29 -75 45 -132 48
-178 6 -66 5 -70 -47 -173 -38 -74 -54 -117 -54 -147 -1 -41 0 -42 39 -53 22
-7 91 -21 153 -33 121 -23 191 -52 233 -98 39 -42 62 -81 56 -96 -3 -7 -43
-36 -90 -65 -184 -113 -422 -314 -582 -492 -49 -55 -97 -100 -105 -100 -34 0
-140 -61 -196 -113 -87 -80 -116 -149 -122 -284 -3 -57 -6 -103 -7 -103 -1 0
-142 -54 -314 -120 -1033 -397 -1802 -646 -2366 -764 -205 -43 -307 -56 -439
-56 l-99 0 6 98 c4 53 7 157 7 230 l0 132 58 0 c133 0 473 37 706 76 926 155
1598 482 1946 949 115 155 207 365 247 562 24 121 24 339 0 453 -99 461 -378
808 -872 1082 -237 132 -568 259 -860 329 -49 12 -93 25 -97 28 -4 4 24 31 63
60 38 29 68 55 66 57 -2 2 -24 -3 -48 -11 -24 -9 -84 -20 -134 -25 -49 -5
-107 -15 -129 -23 -29 -10 -53 -11 -97 -4 -66 11 -75 22 -26 31 48 9 177 76
230 120 40 33 69 71 181 239 l19 29 -49 -30 c-27 -17 -85 -43 -129 -58 -70
-24 -89 -37 -152 -99 -40 -39 -73 -69 -73 -67 0 2 7 27 15 56 12 42 24 59 64
89 118 90 205 208 249 337 16 47 33 94 38 105 11 28 -81 -50 -152 -128 -31
-34 -78 -96 -105 -137 l-49 -75 6 90 c7 88 8 91 48 135 55 59 101 128 134 198
25 52 27 67 27 184 0 69 -3 124 -7 122 -3 -2 -23 -30 -44 -61 -23 -35 -59
-118 -94 -222 l-58 -165 -7 100 -7 100 36 60 c74 127 80 152 81 325 0 175 0
175 -60 47 -34 -73 -47 -132 -61 -283 l-7 -80 -29 123 -30 123 35 72 c52 107
60 153 51 292 l-7 120 -39 -81 c-37 -81 -68 -196 -68 -257 0 -18 -4 -27 -8
-21 -16 16 -51 127 -62 193 -13 71 -43 159 -72 206 -10 16 -66 78 -124 137
-81 81 -104 100 -99 80 4 -15 13 -58 21 -97 18 -83 49 -138 165 -287 56 -73
94 -132 107 -170 l22 -59 -49 53 c-34 37 -76 68 -139 101 -49 26 -93 47 -97
47 -3 0 7 -17 23 -37 16 -21 37 -52 46 -70 16 -33 91 -94 186 -153 30 -19 58
-39 62 -44 3 -5 16 -48 28 -95 11 -47 23 -95 27 -106 3 -11 -13 7 -35 40 -21
33 -52 72 -68 86 -47 42 -167 132 -163 122 2 -4 17 -42 33 -83 16 -41 44 -98
63 -127 41 -61 135 -151 168 -159 19 -5 24 -14 29 -52 13 -112 18 -172 13
-172 -2 0 -17 25 -32 55 -51 104 -98 152 -193 198 -48 23 -90 43 -94 45 -18 9
48 -129 84 -175 54 -71 167 -176 206 -192 36 -15 36 -15 22 -146 -15 -131 -19
-138 -41 -75 -31 90 -80 159 -164 233 -149 132 -139 124 -130 102 4 -11 20
-55 35 -97 30 -87 78 -155 191 -273 l77 -80 -27 -85 c-15 -47 -33 -96 -41
-110 -13 -24 -13 -24 -31 27 -26 77 -89 191 -124 227 -17 17 -55 51 -85 76
-48 39 -53 41 -47 20 4 -14 12 -56 17 -95 6 -38 20 -89 31 -113 22 -45 98
-128 163 -179 l40 -30 -82 12 c-45 6 -83 13 -85 16 -49 70 -237 267 -237 248
0 -11 48 -193 55 -212 7 -16 2 -18 -49 -15 -31 2 -56 5 -56 8 0 3 9 50 19 105
30 154 51 336 57 490 6 127 4 145 -15 196 -88 231 -311 332 -560 254 -154 -49
-260 -150 -306 -290 -17 -50 -20 -86 -19 -215 1 -134 4 -168 27 -254 32 -119
60 -156 117 -156 75 0 110 69 135 263 34 266 55 328 55 164 0 -51 3 -195 7
-319 l6 -226 -29 -6 c-16 -3 -72 -8 -124 -10 -53 -3 -102 -7 -110 -10 -21 -7
-160 -23 -160 -19 0 2 7 17 15 33 13 26 65 220 65 244 0 6 -13 -8 -29 -30 -16
-21 -58 -63 -92 -93 -34 -30 -81 -85 -105 -122 -41 -63 -46 -67 -90 -74 -26
-3 -52 -9 -58 -11 -7 -3 -18 6 -24 20 -10 23 -8 27 38 61 61 45 135 127 161
177 11 21 24 71 29 111 5 39 13 83 17 97 5 20 -11 9 -77 -51 -91 -82 -134
-148 -175 -265 -27 -78 -28 -77 -75 67 l-30 91 92 97 c103 107 162 188 173
241 4 19 16 54 26 77 10 24 16 43 14 43 -6 0 -141 -116 -181 -157 -47 -46 -84
-106 -110 -178 -26 -69 -29 -65 -43 60 -16 134 -19 126 55 174 37 25 93 76
130 119 70 81 82 101 113 179 l19 48 -67 -32 c-36 -18 -71 -33 -78 -33 -24 0
-101 -91 -142 -167 l-42 -78 6 80 c10 127 15 145 42 156 32 12 128 103 164
156 16 23 47 85 67 137 l38 94 -45 -38 c-25 -21 -73 -61 -106 -88 -39 -31 -72
-70 -93 -108 -18 -32 -31 -50 -29 -39 3 11 15 62 28 114 l23 93 91 60 c114 76
125 86 185 175 l50 73 -92 -46 c-63 -32 -108 -63 -145 -101 l-53 -54 21 58
c12 32 45 87 74 123 147 183 178 236 201 346 8 43 20 87 25 96 5 10 8 18 7 17
-2 0 -53 -51 -114 -112z m848 -830 c66 -32 141 -109 171 -175 20 -42 22 -62
20 -187 -3 -328 -95 -776 -214 -1042 l-30 -68 6 430 c3 237 8 484 12 549 4 83
3 117 -5 112 -6 -4 -13 10 -17 36 -26 155 -160 225 -261 136 -62 -55 -71 -84
-104 -333 -25 -183 -46 -248 -82 -243 -27 4 -50 65 -73 197 -48 273 16 470
183 559 88 47 154 62 253 59 69 -2 96 -8 141 -30z m-187 -243 c33 -15 65 -64
65 -98 0 -11 -13 -4 -38 24 -46 47 -92 54 -137 18 l-27 -21 16 31 c14 28 56
61 79 62 5 0 24 -7 42 -16z m-105 -979 l0 -175 -61 -115 c-33 -63 -63 -115
-65 -115 -29 0 -228 128 -318 205 l-68 58 43 36 c102 83 153 138 175 188 22
50 24 52 80 63 87 18 146 28 182 29 l32 1 0 -175z m625 134 c24 -7 61 -30 90
-58 28 -26 61 -54 74 -63 l24 -17 -31 -38 c-16 -21 -41 -48 -55 -61 l-24 -23
-6 38 c-9 68 -47 150 -87 192 -44 45 -43 46 15 30z m265 -9 c0 -13 -11 -13
-30 0 -12 8 -11 10 8 10 12 0 22 -4 22 -10z m75 -27 c-12 -8 -23 -9 -28 -4
-15 15 1 30 24 24 21 -6 21 -7 4 -20z m-502 -33 c14 -41 34 -64 110 -131 51
-44 93 -84 95 -88 4 -11 -79 -86 -163 -146 -66 -48 -241 -145 -260 -145 -18 0
1 73 39 148 46 93 115 273 137 360 7 28 15 52 19 52 3 0 13 -22 23 -50z
m-1113 28 c0 -7 -5 -20 -10 -28 -8 -13 -11 -12 -24 5 -21 28 -20 35 9 35 14 0
25 -6 25 -12z m1500 -38 c0 -5 -4 -12 -10 -15 -5 -3 -10 -4 -10 -1 0 2 -3 12
-6 20 -5 12 -2 15 10 10 9 -3 16 -10 16 -14z m-1360 -59 c-11 -33 -20 -70 -20
-81 0 -31 -13 -24 -59 33 l-43 52 69 32 c37 17 69 30 71 28 2 -1 -6 -30 -18
-64z m1865 39 c213 -54 571 -172 594 -196 9 -9 -83 -88 -184 -158 -96 -67
-184 -121 -188 -115 -30 45 -140 172 -200 231 -69 68 -76 78 -60 87 15 9 13
10 -14 11 -22 0 -58 18 -117 57 l-85 58 52 27 c29 15 59 27 67 28 8 0 69 -14
135 -30z m-2246 -21 c30 -10 65 -19 78 -19 12 0 23 -4 23 -9 0 -15 -48 -41
-76 -41 -14 0 -54 -7 -88 -16 -33 -9 -94 -17 -135 -17 -85 0 -83 -5 27 -59
l62 -31 -58 -61 c-32 -34 -82 -91 -111 -128 -29 -38 -55 -68 -57 -68 -29 0
-386 261 -374 273 21 20 452 163 605 200 21 5 22 5 104 -24z m306 -127 c-1 -1
-39 8 -85 21 l-82 24 44 26 43 25 41 -46 c23 -26 41 -48 39 -50z m1659 64 c26
-15 46 -28 46 -29 0 -1 -42 -2 -93 -3 -83 0 -181 -19 -261 -50 -12 -5 -1 14
30 52 l49 59 92 -1 c80 -1 98 -5 137 -28z m-1444 -253 c30 -22 93 -62 140 -89
47 -26 87 -49 89 -51 2 -1 -4 -31 -14 -65 -10 -35 -25 -106 -34 -159 l-16 -95
-95 13 c-101 15 -286 54 -369 79 -36 10 -55 23 -65 42 -11 19 -15 22 -16 10 0
-10 -7 -18 -15 -18 -44 0 -395 151 -395 170 0 14 113 150 173 208 l54 54 124
3 c80 2 149 10 194 22 l70 19 60 -51 c33 -28 85 -70 115 -92z m1713 45 c81
-80 177 -194 177 -210 0 -9 -211 -105 -314 -143 -257 -95 -624 -165 -865 -165
l-68 0 -21 103 c-12 57 -22 120 -22 140 0 36 2 38 73 73 147 74 269 155 358
241 l45 44 90 -22 c129 -31 266 -30 359 3 39 14 75 26 82 27 7 0 54 -41 106
-91z m-2973 31 c69 -60 233 -180 301 -220 38 -23 69 -43 69 -46 0 -2 -18 -35
-39 -72 -89 -152 -173 -381 -214 -585 -13 -64 -25 -117 -28 -120 -2 -2 -72
129 -154 291 -83 163 -155 295 -160 294 -6 -1 -99 -177 -208 -392 l-199 -389
-237 0 -238 0 4 33 c52 424 291 775 718 1053 91 59 321 184 340 183 6 0 26
-13 45 -30z m3795 -34 c423 -218 713 -508 839 -838 42 -109 72 -224 82 -307
l7 -60 -239 0 -239 0 -200 395 c-110 217 -204 393 -209 392 -4 -2 -72 -130
-150 -285 -79 -156 -147 -287 -153 -293 -6 -6 -17 29 -32 103 -39 198 -137
463 -221 600 -17 26 -30 52 -30 57 0 5 35 31 78 57 91 57 257 181 291 218 14
14 31 26 38 26 7 0 70 -29 138 -65z m-2155 -571 c-16 -99 -12 -250 10 -341 26
-108 79 -210 189 -363 195 -270 271 -475 272 -734 0 -176 -27 -283 -117 -456
-43 -83 -152 -240 -166 -240 -5 0 -8 72 -8 160 l0 159 44 88 c68 135 91 221
91 333 0 156 -20 200 -241 523 -128 186 -173 289 -216 482 -17 80 -17 433 1
540 17 107 55 224 100 310 l36 70 7 -235 c5 -149 5 -257 -2 -296z m-1113 262
c90 -44 249 -110 297 -122 14 -3 28 -10 31 -14 3 -5 -11 -93 -31 -197 -21
-103 -53 -273 -73 -378 l-37 -190 -261 -3 -261 -2 -27 46 -27 46 17 101 c24
152 80 356 131 481 46 114 132 276 145 276 4 0 47 -20 96 -44z m2690 2 c111
-177 234 -550 249 -758 4 -55 2 -71 -18 -105 l-24 -40 -252 -3 c-245 -2 -253
-2 -309 21 -32 13 -114 43 -183 66 -218 74 -270 115 -270 215 0 69 14 114 49
156 64 79 191 116 302 90 46 -11 64 -24 120 -79 l66 -66 66 60 66 60 -33 45
c-68 94 -160 151 -275 173 l-59 11 127 47 c70 25 175 69 232 97 57 28 107 51
111 51 4 1 20 -18 35 -41z m-5464 1 c43 -22 87 -72 87 -99 0 -82 -107 -128
-320 -139 -115 -5 -125 -8 -128 -26 -1 -11 29 -87 68 -170 38 -82 70 -156 70
-163 0 -7 -22 -90 -50 -184 -27 -94 -50 -181 -50 -193 0 -34 28 -39 70 -11
105 69 228 112 300 104 43 -5 29 -11 -79 -32 -115 -22 -185 -56 -240 -116
l-46 -50 -82 163 c-94 185 -113 247 -113 367 0 138 39 242 137 363 59 71 152
148 218 178 45 21 125 25 158 8z m8266 -20 c76 -38 193 -149 250 -238 60 -93
83 -175 83 -291 0 -121 -19 -180 -118 -379 l-76 -153 -47 50 c-56 62 -130 98
-244 119 -106 20 -120 26 -77 31 72 8 195 -35 300 -104 36 -24 64 -24 73 -1 2
7 -20 98 -51 204 l-54 192 75 157 c94 194 94 194 -31 194 -172 1 -306 40 -337
100 -20 39 -19 52 7 85 58 73 144 85 247 34z m-4814 -204 c72 -13 149 -25 172
-26 l41 -3 5 -195 c5 -203 19 -287 67 -412 11 -30 20 -54 20 -54 0 0 -63 1
-140 3 -134 3 -141 4 -150 25 -161 407 -280 712 -280 718 0 3 30 -2 68 -13 37
-10 126 -29 197 -43z m-3319 -7 c-4 -21 -25 -87 -48 -146 -39 -99 -42 -114
-43 -202 0 -93 1 -96 43 -171 l42 -76 -73 5 c-81 5 -156 -12 -240 -55 -27 -13
-50 -23 -52 -21 -2 2 14 63 36 137 21 74 39 147 39 163 0 16 -27 88 -60 160
-33 71 -60 132 -60 134 0 2 28 4 63 4 135 0 298 49 329 100 18 29 31 12 24
-32z m7905 -14 c55 -28 127 -44 232 -51 53 -3 97 -9 97 -13 0 -4 -25 -59 -55
-123 -31 -63 -58 -130 -61 -149 -3 -21 9 -81 35 -173 22 -76 39 -141 37 -143
-2 -2 -26 8 -53 21 -84 43 -159 60 -239 55 l-72 -5 45 86 45 86 -4 90 c-4 72
-11 106 -38 170 -60 147 -73 243 -25 191 12 -13 37 -32 56 -42z m-3366 18 c-6
-4 -26 -20 -47 -35 -54 -39 -114 -137 -134 -219 -36 -148 -2 -293 91 -383 l47
-45 -173 2 -173 3 -58 295 c-31 162 -57 305 -57 318 -1 21 3 22 72 22 87 0
254 16 352 34 93 18 91 17 80 8z m426 -49 c75 -37 135 -94 125 -118 -5 -14
-13 -10 -47 25 -151 155 -446 121 -554 -64 -35 -61 -50 -150 -35 -219 22 -107
74 -154 240 -218 l105 -39 -55 3 c-110 8 -242 78 -285 152 -35 59 -48 139 -36
215 31 190 181 304 392 297 73 -3 96 -8 150 -34z m-2921 -295 c97 -190 140
-286 138 -303 -2 -20 -39 43 -147 255 l-144 281 -49 -93 c-27 -51 -92 -177
-145 -280 -55 -109 -101 -188 -109 -188 -19 0 -19 1 22 83 148 294 278 537
285 530 4 -4 71 -133 149 -285z m4083 -40 c114 -224 143 -288 130 -288 -13 0
-57 76 -162 281 l-144 282 -146 -284 c-110 -215 -147 -278 -149 -258 -2 18 43
116 144 315 144 281 148 287 163 264 9 -13 82 -153 164 -312z m-3078 227 c13
-33 66 -165 119 -293 74 -181 91 -233 78 -230 -15 3 -104 206 -213 483 -11 27
-16 7 -63 -227 -34 -178 -54 -258 -63 -258 -16 0 -16 5 -3 67 5 26 28 145 50
263 51 273 49 262 62 258 6 -2 21 -31 33 -63z m1034 -512 c1 -7 -5 -13 -12
-13 -9 0 -26 68 -56 221 -49 257 -56 311 -46 336 5 11 27 -82 61 -257 29 -151
53 -281 53 -287z m-2099 207 l90 -180 -180 0 c-99 0 -180 3 -180 8 0 12 168
352 174 352 3 0 46 -81 96 -180z m4060 0 l90 -180 -180 0 c-99 0 -180 2 -180
5 0 7 174 355 177 355 2 0 43 -81 93 -180z m-2940 -78 c27 -68 50 -127 50
-132 0 -6 -33 -10 -75 -10 -49 0 -75 4 -75 11 0 20 43 259 47 256 1 -2 25 -58
53 -125z m901 -149 c13 -16 12 -17 -3 -4 -10 7 -18 15 -18 17 0 8 8 3 21 -13z
m-2563 -56 c-5 -21 -289 -577 -294 -577 -10 0 -62 125 -88 210 -30 99 -56 252
-56 328 l0 52 221 0 c173 0 220 -3 217 -13z m5398 -69 c-9 -102 -39 -253 -65
-331 -26 -75 -72 -177 -80 -177 -6 0 -301 572 -301 584 0 3 102 6 226 6 l227
0 -7 -82z m-4666 57 c0 -13 -41 -15 -312 -15 l-313 0 -144 -281 c-106 -208
-146 -278 -155 -269 -8 8 27 84 134 295 l145 285 323 0 c280 0 322 -2 322 -15z
m351 -528 c8 -18 8 -32 2 -38 -14 -14 -283 512 -283 554 1 25 30 -26 135 -228
74 -143 140 -273 146 -288z m286 521 c-22 -93 -120 -629 -116 -632 3 -3 42
-14 88 -25 59 -13 84 -16 87 -7 2 6 30 162 61 346 l58 335 100 0 99 0 143
-350 c78 -192 146 -358 151 -368 5 -14 38 56 124 270 64 158 118 294 120 302
2 8 16 -5 33 -30 l29 -44 4 -252 4 -251 -88 -6 c-140 -10 -330 -35 -436 -56
-214 -44 -471 -131 -647 -220 -66 -33 -86 -39 -93 -28 -36 53 -145 293 -174
383 -37 113 -84 304 -84 340 0 11 47 -67 104 -173 57 -106 108 -198 114 -204
7 -7 28 3 69 32 32 24 62 46 67 51 4 4 -60 143 -143 308 l-152 301 242 0 241
0 -5 -22z m93 15 c1 -5 -23 -135 -52 -290 -36 -191 -57 -283 -65 -283 -7 0
-13 6 -13 13 0 15 99 536 105 555 5 13 25 17 25 5z m475 -219 c49 -121 95
-231 101 -243 9 -21 20 0 96 190 48 118 88 220 90 227 2 7 12 -2 22 -19 10
-18 14 -29 9 -26 -10 6 -61 -113 -178 -406 -15 -37 -29 -66 -31 -65 -7 8 -224
547 -224 558 0 6 6 10 12 8 7 -3 53 -103 103 -224z m225 218 c0 -7 -109 -284
-114 -289 -3 -3 -116 280 -116 290 0 4 52 7 115 7 63 0 115 -4 115 -8z m506
-58 c7 -32 11 -60 10 -62 -2 -1 -17 21 -34 48 -18 28 -27 48 -22 45 6 -3 10 3
10 15 0 43 25 12 36 -46z m597 45 c291 -96 327 -123 327 -247 0 -103 -32 -165
-108 -209 -43 -25 -56 -28 -142 -27 -158 0 -232 39 -297 154 -15 27 -31 50
-36 50 -7 0 -147 -68 -155 -75 -9 -8 88 -163 123 -198 140 -140 470 -166 636
-52 109 76 167 220 157 393 -4 78 -38 173 -75 214 -15 17 -7 18 175 18 106 0
192 -3 192 -6 0 -3 -68 -138 -151 -300 -83 -163 -150 -297 -148 -298 23 -19
134 -96 139 -96 3 0 55 92 115 204 60 113 111 203 113 201 2 -2 -6 -51 -17
-109 -42 -202 -127 -436 -211 -578 l-40 -67 -113 54 c-224 105 -469 181 -730
225 -66 11 -130 20 -143 20 -21 0 -24 4 -24 39 0 69 -21 191 -47 280 -14 47
-25 94 -25 104 0 10 -12 84 -28 165 -16 80 -26 150 -24 154 3 4 111 8 240 8
210 0 241 -2 297 -21z m321 -10 c96 -64 132 -176 103 -322 -19 -95 -60 -163
-126 -208 -64 -42 -112 -53 -227 -53 -132 1 -223 28 -287 84 -41 36 -87 96
-87 114 0 20 31 0 58 -39 65 -93 164 -129 341 -124 105 4 120 7 163 31 85 51
129 124 144 244 15 124 -36 219 -149 273 l-62 30 41 1 c29 0 54 -9 88 -31z
m441 -277 c-76 -147 -141 -271 -146 -276 -5 -6 -11 -3 -14 6 -3 8 54 131 134
287 165 319 155 303 159 273 2 -14 -48 -123 -133 -290z m988 21 c107 -207 144
-289 135 -294 -13 -8 -38 36 -210 374 l-90 177 -314 0 c-272 0 -314 2 -314 15
0 13 43 15 323 15 l322 0 148 -287z m-4284 181 c7 -15 16 -63 22 -108 32 -257
107 -510 216 -726 40 -80 69 -146 63 -148 -28 -10 -256 -169 -323 -226 l-77
-67 -131 67 c-315 160 -552 356 -710 586 -33 49 -59 91 -57 93 2 2 27 -12 56
-32 28 -20 53 -35 55 -32 2 2 78 142 168 311 l164 308 271 0 271 0 12 -26z
m4207 -270 c87 -162 163 -303 170 -312 10 -14 17 -11 63 22 29 21 54 37 56 34
2 -2 -17 -36 -44 -76 -158 -238 -393 -436 -717 -604 -121 -63 -137 -69 -152
-56 -109 94 -173 142 -271 206 -64 42 -118 77 -120 79 -2 1 10 29 28 60 130
234 216 505 255 801 8 62 20 120 27 128 9 11 59 14 279 14 l268 0 158 -296z
m-6616 -14 c52 -37 145 -110 205 -162 113 -98 285 -272 285 -289 0 -5 -8 -9
-19 -9 -59 0 -165 -75 -193 -136 -25 -59 -17 -84 46 -132 70 -53 88 -91 83
-172 -3 -52 -23 -116 -42 -138 -4 -4 -573 313 -637 354 -69 44 -97 138 -78
260 6 38 31 130 56 204 25 74 56 178 70 230 15 52 28 99 31 103 6 11 77 -31
193 -113z m8504 48 c10 -40 43 -147 73 -238 66 -200 82 -294 64 -375 -8 -34
-23 -68 -39 -86 -21 -22 -444 -268 -650 -378 -21 -11 -24 -9 -47 41 -47 101
-22 205 63 261 52 35 66 59 58 101 -13 67 -136 166 -205 166 -12 0 -21 5 -21
11 0 18 251 261 360 348 99 79 303 221 319 221 4 0 15 -33 25 -72z m-4264
-290 c12 -81 7 -98 -31 -98 l-29 0 0 89 c0 49 3 104 7 122 l7 34 17 -40 c10
-23 23 -71 29 -107z m-20 -219 c-32 -101 -40 -105 -40 -17 0 76 0 77 28 80 15
2 28 3 30 2 1 0 -7 -30 -18 -65z m-179 -149 l2 -195 -55 -105 c-59 -116 -98
-223 -123 -345 -9 -44 -18 -81 -20 -83 -7 -7 -165 29 -258 59 -127 41 -314
134 -422 210 -99 71 -239 204 -303 290 -23 31 -42 59 -42 62 0 4 30 22 68 41
289 145 672 246 1012 265 69 4 128 4 132 1 3 -3 7 -93 9 -200z m674 164 c113
-19 294 -64 405 -102 152 -52 380 -153 380 -168 0 -15 -107 -138 -191 -219
-262 -253 -627 -405 -1011 -422 l-137 -6 6 109 6 109 65 80 c85 104 145 197
194 301 42 90 88 253 88 311 l0 35 53 -7 c28 -3 93 -13 142 -21z m-4057 -101
c68 -34 148 -111 172 -165 10 -24 22 -65 25 -91 l7 -48 -37 26 c-72 48 -159
57 -224 21 -21 -12 -32 -10 -85 11 -38 16 -76 40 -101 67 -22 23 -51 49 -65
58 -22 13 -24 19 -15 43 14 39 75 85 132 101 62 17 125 9 191 -23z m7207 7
c41 -18 87 -62 98 -92 4 -11 -6 -25 -31 -44 -20 -15 -50 -42 -67 -60 -16 -18
-57 -44 -90 -57 -57 -24 -61 -24 -90 -9 -18 10 -55 16 -90 17 -48 0 -69 -6
-107 -28 -26 -15 -49 -27 -52 -27 -11 0 7 84 26 127 36 77 152 172 235 192 48
12 117 4 168 -19z m-5055 -272 c68 -92 206 -225 311 -301 52 -37 157 -99 234
-138 77 -38 129 -68 115 -65 -14 3 -65 12 -115 21 -323 56 -703 162 -940 261
-37 15 -37 15 -19 36 48 52 332 249 359 248 5 -1 30 -28 55 -62z m2860 1 c52
-34 135 -93 184 -132 l89 -71 -54 -24 c-213 -93 -662 -216 -977 -266 -95 -15
-95 -11 0 28 79 33 219 114 303 176 85 62 226 201 288 282 28 37 56 68 62 68
6 0 53 -28 105 -61z m-4915 -48 c22 -10 49 -28 60 -40 l19 -22 -54 21 c-30 12
-67 27 -82 32 -16 6 -28 14 -28 19 0 15 42 10 85 -10z m6865 10 c0 -5 -12 -13
-27 -19 -16 -5 -53 -20 -83 -32 l-54 -21 19 22 c36 39 145 77 145 50z m-6808
-130 c1461 -582 2567 -928 3119 -976 75 -7 76 -7 112 -52 36 -45 37 -48 37
-129 l0 -84 -27 0 c-21 0 -24 -3 -13 -10 19 -12 29 -385 11 -419 -11 -21 -10
-21 56 -21 85 0 111 14 143 70 33 60 41 202 15 279 -17 53 -63 101 -96 101
-17 0 -19 7 -19 60 0 33 4 60 9 60 17 0 21 33 6 56 -8 13 -15 34 -15 48 0 23
3 24 88 30 254 17 385 38 707 118 605 148 1518 463 2583 889 150 60 276 109
281 109 5 0 11 -28 13 -63 6 -68 38 -143 92 -212 17 -22 91 -102 164 -178 198
-206 219 -249 137 -275 -346 -109 -591 -194 -960 -335 -443 -169 -723 -288
-1050 -445 -264 -126 -373 -174 -571 -247 -379 -142 -777 -232 -1164 -266
-196 -17 -654 -6 -840 20 -538 76 -1026 233 -1570 506 -417 209 -1375 579
-1985 768 -32 9 -41 17 -43 38 -4 33 34 81 205 261 186 194 233 270 233 378 0
28 4 50 10 50 5 0 155 -58 332 -129z m3209 -257 c-58 -91 -76 -164 -76 -311 0
-72 -2 -130 -4 -128 -12 13 -30 145 -31 226 0 151 33 295 103 453 l32 71 3
-132 c3 -131 2 -132 -27 -179z m39 -94 c0 -20 -5 -30 -15 -30 -18 0 -18 2 -3
35 15 32 18 32 18 -5z m-213 -42 c-3 -8 -6 -5 -6 6 -1 11 2 17 5 13 3 -3 4
-12 1 -19z m192 -68 c16 0 19 -15 24 -122 10 -174 8 -296 -3 -277 -21 37 -51
171 -57 255 -5 84 4 185 14 157 3 -7 13 -13 22 -13z m180 -871 c29 -51 40
-178 22 -245 -15 -55 -55 -94 -95 -94 -52 0 -56 11 -56 153 l0 129 30 -7 30
-7 0 72 0 72 23 -14 c12 -8 33 -35 46 -59z"/>
<path d="M1766 4092 c-65 -99 -127 -184 -138 -189 -19 -8 -17 -10 15 -20 30
-9 35 -8 30 4 -4 10 42 101 73 141 1 2 18 -4 39 -12 27 -12 35 -20 31 -33 -3
-10 -8 -40 -12 -68 -3 -27 -11 -58 -16 -68 -7 -14 -3 -19 17 -27 15 -6 27 -10
29 -10 1 0 0 15 -2 33 -2 18 11 119 28 225 17 107 30 196 27 198 -2 3 -57 -76
-121 -174z m73 22 c-6 -38 -15 -73 -19 -77 -3 -4 -19 -3 -33 2 l-27 10 43 70
c23 38 43 68 45 66 2 -1 -2 -34 -9 -71z"/>
<path d="M8775 4245 c-25 -11 -27 -13 -9 -14 18 -1 31 -25 83 -153 33 -83 59
-153 58 -155 -2 -2 -70 56 -152 127 -81 72 -150 128 -153 126 -2 -3 28 -89 68
-193 42 -110 70 -198 67 -211 -4 -18 -1 -22 12 -16 9 3 24 9 33 11 16 5 16 6
-2 22 -17 14 -134 290 -127 297 2 2 55 -42 118 -97 131 -116 189 -163 189
-155 0 4 -34 95 -75 203 -42 109 -73 203 -71 210 7 16 -1 16 -39 -2z"/>
<path d="M2046 4179 c-53 -42 -65 -104 -44 -227 9 -56 9 -75 -2 -101 -18 -44
-37 -61 -66 -61 -26 0 -41 33 -31 70 8 32 -1 23 -18 -17 -15 -35 -14 -38 4
-56 46 -47 120 -2 147 89 13 46 13 60 -1 129 -18 88 -14 123 20 155 19 18 27
20 45 10 17 -9 21 -19 18 -41 -5 -33 2 -28 20 13 11 26 9 29 -18 43 -38 19
-42 19 -74 -6z"/>
<path d="M2217 4121 c6 -24 -123 -357 -148 -382 -16 -16 -15 -18 22 -32 35
-14 37 -14 27 2 -8 13 3 50 47 166 80 208 92 235 107 235 10 1 -46 30 -57 30
-2 0 -1 -9 2 -19z"/>
<path d="M8403 4110 c-13 -5 -32 -24 -44 -42 -17 -28 -20 -44 -16 -108 13
-201 163 -355 257 -262 34 35 45 91 31 167 -21 115 -81 213 -148 241 -37 16
-49 16 -80 4z m90 -46 c89 -82 147 -277 101 -342 -21 -30 -68 -29 -109 2 -62
48 -135 227 -121 298 14 70 77 90 129 42z"/>
<path d="M2303 3882 c-65 -100 -127 -185 -138 -190 -17 -8 -16 -10 13 -20 29
-10 32 -9 32 9 0 11 17 46 38 79 l37 58 33 -13 c37 -16 38 -27 18 -123 l-13
-63 29 -15 c30 -15 33 -13 19 14 -6 12 2 89 24 227 18 115 32 212 30 214 -2 2
-57 -78 -122 -177z m75 36 c-17 -106 -23 -114 -61 -85 -15 11 -13 18 24 75 22
34 41 62 43 62 2 0 -1 -24 -6 -52z"/>
<path d="M8198 4026 c-24 -10 -26 -14 -14 -26 21 -22 148 -370 143 -390 -4
-16 -2 -16 34 -2 37 14 38 16 17 26 -30 16 -164 371 -147 392 14 17 4 17 -33
0z"/>
<path d="M2571 3979 c-93 -245 -145 -367 -161 -380 -18 -15 -17 -16 14 -26 30
-9 33 -9 28 9 -5 22 99 312 108 300 4 -4 15 -83 24 -176 10 -93 21 -178 25
-189 6 -15 26 25 85 174 43 107 84 199 92 205 12 10 9 14 -16 24 -17 7 -33 10
-37 6 -3 -3 -1 -6 5 -6 7 0 12 -6 12 -12 1 -15 -112 -319 -116 -315 -2 1 -13
92 -24 202 -12 110 -24 202 -26 204 -2 2 -8 -7 -13 -20z"/>
<path d="M8030 3964 c-47 -18 -88 -30 -92 -28 -10 6 -9 -23 2 -56 8 -24 8 -24
9 -3 1 24 58 61 71 46 13 -15 132 -348 132 -371 0 -17 5 -22 17 -16 9 3 24 9
33 11 16 5 16 7 -2 22 -12 9 -48 91 -85 191 -61 161 -64 176 -48 187 22 16 45
16 62 1 11 -11 12 -8 6 12 -4 14 -10 28 -14 31 -3 3 -44 -9 -91 -27z"/>
<path d="M7803 3845 c52 -333 60 -398 48 -417 -7 -11 -8 -18 -3 -14 5 3 22 10
37 16 25 9 26 12 12 23 -13 9 -36 105 -37 149 0 3 15 11 33 17 37 14 48 4 99
-86 17 -29 32 -53 33 -53 2 0 16 5 30 12 l25 11 -23 11 c-12 7 -72 89 -133
184 -61 94 -114 175 -119 179 -4 5 -5 -10 -2 -32z m101 -195 c-5 -4 -19 -11
-30 -14 -19 -6 -22 -2 -28 45 -4 29 -9 66 -12 83 -5 25 2 18 36 -37 23 -38 38
-72 34 -77z"/>
<path d="M2905 3641 c-49 -106 -96 -196 -104 -199 -9 -4 -6 -9 10 -18 32 -18
38 -17 32 4 -2 10 23 79 56 153 33 74 61 130 61 124 0 -5 -7 -68 -15 -140 -24
-212 -29 -209 82 -57 54 73 99 129 101 124 1 -4 -20 -72 -46 -151 l-49 -143
24 -9 c33 -12 37 -11 24 5 -11 14 -3 44 88 326 16 52 29 96 27 97 -2 2 -52
-64 -112 -146 -60 -82 -111 -150 -114 -150 -4 -1 2 74 12 167 10 92 17 176 16
187 -2 11 -42 -64 -93 -174z"/>
<path d="M7610 3808 c-19 -9 -21 -12 -9 -15 21 -5 154 -364 146 -393 -3 -11
-4 -20 -4 -20 16 2 77 29 66 30 -19 0 -36 37 -109 238 -28 79 -49 150 -46 158
6 16 -9 17 -44 2z"/>
<path d="M7429 3747 c-50 -33 -64 -83 -50 -170 15 -91 52 -166 106 -216 38
-35 51 -41 87 -41 25 0 57 8 76 20 28 17 31 24 26 47 -14 59 -22 69 -21 29 1
-27 -5 -42 -18 -52 -86 -63 -221 86 -233 257 -4 62 -3 69 21 93 38 38 87 36
123 -6 25 -30 26 -31 19 -8 -21 68 -23 70 -63 70 -24 0 -52 -9 -73 -23z"/>
<path d="M3298 3695 c6 -32 -135 -383 -156 -387 -11 -3 -1 -11 30 -25 83 -37
85 -38 104 -1 l17 33 -22 -19 c-17 -16 -25 -17 -46 -8 -14 6 -25 20 -25 29 0
24 60 173 70 173 4 0 19 -9 32 -20 l25 -19 12 25 c6 14 7 23 2 19 -6 -3 -23 0
-40 7 l-30 13 30 78 c17 42 36 77 43 77 19 0 44 -23 48 -45 3 -16 6 -14 15 11
l11 31 -62 25 -63 25 5 -22z"/>
<path d="M7138 3641 c-75 -59 -56 -245 38 -368 61 -80 152 -85 190 -11 25 49
15 176 -20 254 -53 119 -145 174 -208 125z m82 -16 c63 -33 140 -193 140 -293
0 -18 -7 -46 -15 -62 -13 -24 -22 -30 -50 -30 -68 0 -136 90 -171 229 -19 77
-12 123 23 151 31 24 36 24 73 5z"/>
<path d="M3487 3629 c9 -11 -3 -53 -58 -194 -38 -99 -78 -187 -87 -195 -17
-14 -14 -17 44 -44 80 -36 117 -31 171 23 97 97 138 284 78 351 -16 17 -81 49
-135 65 -21 7 -23 6 -13 -6z m84 -45 c59 -30 73 -107 39 -216 -24 -79 -69
-143 -115 -165 -33 -16 -37 -16 -70 0 -19 9 -35 24 -35 33 0 17 102 289 127
337 16 32 15 32 54 11z"/>
<path d="M6922 3564 c-17 -12 -22 -25 -22 -60 0 -64 30 -115 100 -169 69 -53
92 -91 88 -143 -3 -32 -7 -37 -29 -40 -19 -2 -33 4 -48 24 -25 31 -26 26 -7
-21 29 -69 106 -33 106 48 0 63 -36 124 -105 180 -68 54 -87 85 -83 130 2 25
8 33 27 35 16 3 30 -3 39 -15 14 -17 14 -16 8 7 -3 14 -6 28 -6 33 0 13 -45 7
-68 -9z"/>
<path d="M3775 3507 c7 -16 -128 -362 -150 -387 -14 -16 -14 -18 2 -23 10 -2
25 -8 34 -11 13 -6 16 -2 12 17 -7 36 134 387 155 387 15 1 15 2 2 9 -8 5 -25
12 -37 15 -17 6 -22 4 -18 -7z"/>
<path d="M6770 3513 c-86 -32 -59 -156 54 -243 67 -52 85 -80 86 -132 0 -27
-5 -40 -20 -48 -25 -13 -56 1 -65 31 -4 11 -9 18 -11 16 -3 -3 2 -21 10 -41
12 -30 20 -36 44 -36 42 0 62 28 62 86 0 66 -30 116 -105 176 -65 53 -84 79
-85 119 0 49 46 66 73 27 15 -22 15 -21 5 15 -11 36 -18 41 -48 30z"/>
<path d="M3899 3403 c-103 -93 -150 -295 -86 -369 24 -27 93 -55 114 -47 15 6
47 62 40 70 -3 2 -10 -4 -16 -15 -14 -26 -42 -32 -78 -17 -64 27 -71 159 -14
278 53 110 118 144 177 93 22 -18 28 -32 27 -61 l-1 -38 19 44 20 43 -23 19
c-63 50 -123 50 -179 0z"/>
<path d="M6544 3410 c3 -14 17 -112 31 -218 17 -136 22 -199 15 -212 -9 -18
-8 -18 20 -8 22 7 28 14 21 22 -14 16 -34 148 -24 156 4 3 20 11 35 18 27 11
28 10 68 -56 22 -38 40 -73 40 -79 0 -8 10 -8 35 0 34 10 34 11 12 21 -12 7
-70 89 -130 186 -116 188 -132 210 -123 170z m86 -165 c27 -49 26 -51 -11 -60
-26 -6 -27 -5 -33 52 -4 32 -9 67 -12 78 -5 18 -3 18 14 -3 10 -13 29 -43 42
-67z"/>
<path d="M6304 3348 c8 -18 19 -49 24 -68 l10 -35 0 40 c0 56 -11 89 -31 93
-16 3 -16 1 -3 -30z"/>
<path d="M4207 3354 c-3 -4 -53 -88 -109 -186 -61 -106 -111 -183 -123 -188
-19 -7 -18 -9 8 -19 35 -14 40 -14 32 -1 -5 8 45 112 69 147 1 1 18 -3 38 -9
l37 -11 -6 -51 c-3 -28 -9 -68 -13 -88 -7 -35 -6 -37 23 -47 39 -14 42 -14 27
4 -16 20 -15 65 9 280 11 94 18 171 17 173 -2 1 -6 -1 -9 -4z m-36 -164 c-5
-40 -12 -74 -14 -76 -2 -3 -16 0 -31 6 l-27 10 37 70 c21 38 40 68 42 66 2 -2
-1 -36 -7 -76z"/>
<path d="M6204 3322 c-23 -15 -36 -54 -29 -90 10 -56 33 -91 95 -152 63 -60
86 -112 69 -157 -14 -37 -59 -28 -82 17 l-18 35 6 -35 c11 -52 23 -70 49 -70
13 0 34 9 47 19 20 16 24 28 23 73 -1 70 -29 123 -98 182 -63 53 -87 106 -67
145 15 27 45 27 67 -1 l16 -23 -6 25 c-3 14 -6 28 -6 33 0 9 -52 9 -66 -1z"/>
<path d="M4331 3302 c10 -16 4 -50 -34 -199 -26 -99 -47 -183 -47 -186 0 -3
-6 -12 -14 -20 -13 -12 -6 -17 51 -32 64 -17 66 -17 80 0 7 11 13 26 13 34 -1
13 -2 13 -11 -1 -12 -22 -62 -24 -79 -3 -10 12 -3 50 34 197 27 104 54 188 62
195 13 10 12 12 -8 18 -63 18 -60 18 -47 -3z"/>
<path d="M6060 3278 c-36 -9 -80 -16 -97 -17 -31 -1 -33 -3 -32 -38 0 -32 2
-34 9 -16 8 20 64 42 77 30 10 -11 84 -372 79 -390 -4 -15 0 -18 17 -13 12 3
31 6 42 6 19 1 19 2 -1 10 -12 4 -24 21 -27 37 -4 15 -22 102 -42 192 -37 173
-37 180 11 181 11 0 25 -5 32 -12 9 -9 12 -9 11 3 -2 42 -10 45 -79 27z"/>
<path d="M4618 3233 c-48 -56 -50 -121 -7 -228 32 -81 33 -116 2 -163 -19 -31
-54 -25 -73 13 l-15 30 -3 -28 c-4 -37 13 -57 50 -57 41 0 75 40 88 105 11 55
11 55 -44 202 -13 36 -14 49 -3 80 10 33 16 38 42 38 27 0 31 -4 35 -35 l6
-35 8 39 c5 28 4 41 -6 47 -22 15 -64 10 -80 -8z"/>
<path d="M5865 3240 c-16 -4 -22 -8 -13 -9 10 0 20 -11 23 -24 10 -37 53 -312
50 -315 -1 -1 -56 72 -121 163 -65 91 -120 161 -122 156 -2 -6 9 -94 23 -198
15 -103 25 -200 23 -215 -4 -25 -1 -28 23 -28 15 0 31 5 34 10 3 6 0 10 -9 10
-8 0 -17 12 -20 28 -9 40 -46 280 -46 293 0 6 44 -49 98 -123 113 -157 141
-193 146 -187 1 2 -10 96 -26 209 -22 152 -27 209 -19 223 12 19 7 20 -44 7z"/>
<path d="M4740 3228 c0 -7 -3 -24 -6 -38 -5 -21 -4 -22 6 -7 7 11 24 17 45 17
43 0 42 7 15 -215 -21 -175 -26 -194 -44 -196 -17 -2 36 -17 63 -18 23 -1 24
0 7 12 -18 13 -18 20 3 195 11 100 21 188 21 197 0 32 70 12 83 -25 3 -8 6 -3
6 13 1 15 6 27 13 27 8 0 9 -42 5 -160 -8 -182 1 -239 41 -270 36 -29 69 -25
102 10 35 38 47 91 58 268 6 98 12 136 23 143 11 7 9 9 -8 9 -12 0 -29 3 -38
6 -15 6 -15 4 -4 -14 10 -16 10 -52 2 -175 -13 -185 -28 -230 -80 -235 -64 -6
-79 58 -65 272 7 98 13 141 23 147 12 7 11 9 -1 9 -42 1 -251 29 -260 35 -5 3
-10 0 -10 -7z"/>
<path d="M5548 3203 c-57 -4 -58 -4 -44 -26 9 -15 18 -87 27 -215 11 -167 11
-195 -2 -203 -9 -6 2 -9 36 -9 76 0 95 8 95 39 -1 22 -2 24 -11 9 -6 -11 -22
-18 -39 -18 -34 0 -36 4 -45 124 l-7 78 36 -4 c32 -3 36 -1 36 18 0 21 -3 22
-32 13 -17 -5 -34 -6 -37 -4 -2 3 -7 43 -9 90 l-5 85 31 0 c17 0 33 -6 35 -12
3 -7 6 -1 6 15 1 15 -2 26 -6 25 -5 -1 -34 -3 -65 -5z"/>
<path d="M1690 1623 c0 -172 -1 -183 -21 -202 -21 -19 -21 -19 31 -19 52 -1
52 -1 34 20 -16 17 -19 40 -22 157 l-3 136 103 -105 c57 -58 127 -132 156
-165 l52 -60 0 175 c0 190 4 217 29 223 9 3 -8 5 -38 6 -49 1 -53 0 -36 -13
17 -12 20 -30 23 -150 3 -75 2 -136 -2 -136 -5 0 -133 130 -259 265 l-47 50 0
-182z"/>
<path d="M2690 1791 c0 -5 6 -11 13 -13 9 -4 13 -49 15 -172 3 -148 1 -170
-14 -187 -17 -19 -14 -19 109 -19 l127 0 0 32 c0 29 -1 30 -13 14 -10 -14 -29
-18 -88 -20 l-74 -1 -3 83 -3 82 74 0 c43 0 78 -5 85 -12 9 -9 12 -3 12 27 0
30 -3 36 -12 27 -7 -7 -42 -12 -85 -12 l-73 0 0 75 0 75 69 0 c50 0 74 -4 85
-16 15 -14 16 -13 16 15 l0 31 -120 0 c-66 0 -120 -4 -120 -9z"/>
<path d="M3035 1791 c-24 -5 -26 -8 -12 -13 15 -7 17 -25 17 -181 0 -121 -4
-177 -12 -185 -9 -9 -2 -12 32 -12 34 0 41 3 32 12 -17 17 -16 168 0 168 17 0
125 -118 141 -152 10 -23 18 -28 49 -28 41 0 48 9 21 26 -10 6 -46 46 -81 88
-50 60 -59 76 -44 76 26 0 70 42 78 74 24 96 -84 157 -221 127z m150 -36 c19
-18 25 -35 25 -67 -1 -64 -36 -98 -101 -98 l-32 0 7 46 c3 26 6 69 6 95 l0 49
35 0 c25 0 44 -8 60 -25z"/>
<path d="M3394 1766 c-28 -28 -34 -41 -34 -78 0 -56 21 -79 105 -117 85 -39
107 -82 66 -132 -15 -19 -28 -23 -71 -23 -46 0 -56 4 -76 30 l-24 29 0 -31 c0
-37 15 -44 103 -44 51 0 62 4 88 29 23 23 29 38 29 71 0 60 -14 79 -85 111
-102 46 -127 88 -85 142 37 46 113 43 152 -6 l18 -22 0 31 c0 37 -15 44 -98
44 -48 0 -58 -4 -88 -34z"/>
<path d="M3800 1760 c0 -34 0 -34 16 -12 12 18 25 22 70 22 l54 0 0 -171 c0
-144 -2 -174 -16 -183 -12 -9 -4 -12 40 -12 55 0 55 0 34 20 -18 17 -20 27
-14 79 3 33 6 107 6 163 l0 104 50 0 c38 0 54 -5 70 -22 l20 -22 0 35 0 34
-165 0 -165 0 0 -35z"/>
<path d="M4261 1623 c-40 -98 -82 -188 -94 -200 l-20 -23 48 0 c46 0 47 1 31
18 -14 17 -15 23 -3 58 l14 39 83 0 82 0 16 -39 c11 -29 12 -43 4 -56 -10 -16
-6 -18 39 -18 49 0 50 1 31 18 -10 10 -47 94 -81 186 -35 93 -66 175 -70 182
-4 7 -37 -60 -80 -165z m98 12 c17 -44 31 -83 31 -87 0 -5 -31 -8 -70 -8 -38
0 -70 1 -70 3 0 3 13 35 61 156 5 13 11 22 14 20 2 -3 18 -40 34 -84z"/>
<path d="M4611 1786 c-32 -18 -50 -53 -51 -99 0 -58 15 -76 96 -113 80 -36
102 -62 90 -109 -14 -57 -126 -69 -166 -18 l-20 26 0 -31 c0 -37 12 -42 95
-42 56 0 66 3 94 29 26 24 31 37 31 73 0 24 -6 52 -12 61 -7 9 -47 34 -88 54
-86 44 -106 74 -79 121 32 58 109 65 156 14 l23 -25 0 30 c0 23 -5 32 -22 37
-39 10 -122 6 -147 -8z"/>
<path d="M5016 1618 c-6 -146 -10 -186 -23 -200 -15 -17 -13 -18 38 -18 53 0
54 1 31 18 -22 17 -23 22 -20 156 l3 139 144 -156 c80 -87 149 -157 153 -157
4 0 8 83 8 185 0 165 2 185 18 194 13 8 4 10 -38 10 -30 0 -48 -3 -40 -6 27
-11 30 -26 30 -163 l0 -135 -93 95 c-51 52 -118 123 -148 158 l-56 62 -7 -182z"/>
<path d="M5921 1786 c-32 -18 -50 -53 -51 -99 0 -58 15 -76 96 -113 79 -36
101 -64 89 -112 -14 -54 -126 -64 -165 -15 l-20 26 0 -31 c0 -37 12 -42 95
-42 56 0 66 3 94 29 26 24 31 37 31 73 0 24 -6 52 -12 61 -7 9 -47 34 -88 54
-86 44 -106 74 -79 121 32 58 109 65 156 14 l23 -25 0 30 c0 23 -5 32 -22 37
-39 10 -122 6 -147 -8z"/>
<path d="M6241 1623 c-40 -98 -82 -188 -94 -200 l-20 -23 48 0 c46 0 47 1 31
18 -14 17 -15 23 -3 58 l14 39 83 0 82 0 16 -39 c12 -30 13 -43 4 -57 -11 -18
-8 -19 40 -19 51 0 52 0 31 19 -11 10 -37 66 -58 123 -53 145 -96 258 -99 258
-1 0 -35 -80 -75 -177z m98 14 c17 -43 31 -82 31 -87 0 -6 -31 -10 -70 -10
-38 0 -70 1 -70 3 0 2 12 32 26 68 15 35 30 75 35 88 5 13 11 22 13 20 3 -2
18 -39 35 -82z"/>
<path d="M6805 1787 c-75 -30 -120 -88 -131 -170 -12 -82 39 -171 115 -203 45
-19 144 -21 194 -5 30 10 37 17 37 38 l0 26 -26 -26 c-66 -66 -203 -35 -250
56 -22 42 -22 152 -1 193 50 97 199 123 256 46 l20 -27 1 36 c0 34 -2 37 -37
43 -58 9 -145 6 -178 -7z"/>
<path d="M7090 1791 c0 -5 6 -11 13 -13 9 -4 13 -49 15 -172 3 -148 1 -170
-14 -187 -17 -19 -14 -19 109 -19 l127 0 0 32 c0 28 -1 30 -13 14 -9 -13 -33
-19 -90 -23 l-77 -6 0 87 0 86 75 0 c43 0 75 -4 75 -10 0 -5 3 -10 8 -10 4 0
7 16 7 35 0 21 -3 30 -9 25 -6 -6 -43 -10 -83 -10 l-73 0 0 75 0 75 69 0 c50
0 74 -4 85 -16 15 -14 16 -13 16 15 l0 31 -120 0 c-66 0 -120 -4 -120 -9z"/>
<path d="M7437 1614 c-5 -164 -8 -187 -24 -199 -16 -12 -11 -14 36 -13 54 0
54 0 33 17 -22 16 -22 22 -20 156 l3 139 144 -157 c80 -86 149 -157 153 -157
4 0 8 83 8 185 0 165 2 185 18 194 13 8 4 10 -38 10 -30 0 -48 -3 -40 -6 27
-11 30 -26 30 -163 l0 -135 -83 85 c-45 47 -112 117 -148 157 l-66 72 -6 -185z"/>
<path d="M7912 1793 c-52 -4 -52 -4 -37 -26 12 -17 15 -54 15 -181 0 -139 -2
-161 -17 -173 -16 -12 -3 -13 97 -11 101 3 121 6 160 28 158 89 116 322 -65
358 -32 7 -68 11 -79 10 -12 -1 -45 -3 -74 -5z m178 -35 c69 -36 85 -65 85
-158 0 -88 -13 -116 -76 -158 -28 -19 -44 -22 -99 -20 l-65 3 -3 154 c-3 184
3 201 71 201 25 0 61 -10 87 -22z"/>
<path d="M8371 1623 c-40 -98 -82 -188 -93 -200 l-20 -21 47 0 c44 0 46 1 31
17 -14 15 -14 23 -3 57 l14 39 83 0 82 0 16 -39 c11 -29 12 -43 4 -56 -10 -16
-6 -18 39 -18 49 0 50 1 31 18 -11 10 -47 94 -81 186 -34 92 -65 174 -70 181
-4 9 -34 -51 -80 -164z m98 12 c17 -44 31 -83 31 -87 0 -5 -31 -8 -70 -8 -38
0 -70 1 -70 3 0 5 61 160 66 169 8 13 9 11 43 -77z"/>
<path d="M8696 1723 c-3 -42 -6 -123 -6 -181 0 -84 -3 -109 -17 -124 -15 -17
-14 -18 30 -18 46 0 62 12 32 24 -12 4 -15 30 -15 148 l0 142 103 -110 c57
-60 121 -130 143 -156 21 -26 42 -47 46 -47 3 -1 8 80 10 180 3 165 5 182 22
195 18 13 15 14 -32 14 l-52 0 20 -20 c18 -18 20 -33 20 -152 l0 -133 -98 100
c-54 55 -121 126 -148 157 l-51 57 -7 -76z"/>
<path d="M9264 1784 c-30 -83 -138 -334 -153 -355 l-19 -26 45 -1 c39 0 42 1
26 13 -17 12 -17 16 -3 57 l15 43 80 0 80 0 19 -39 c15 -31 17 -43 7 -57 -10
-18 -7 -19 41 -18 29 0 47 3 40 6 -19 7 -38 51 -104 227 -32 88 -61 162 -63
165 -3 2 -8 -5 -11 -15z m30 -141 c16 -43 31 -84 33 -90 4 -10 -13 -13 -67
-13 -54 0 -71 3 -67 13 2 6 17 47 33 90 16 42 31 77 34 77 3 0 18 -35 34 -77z"/>
<path d="M1248 1778 c21 -11 22 -16 22 -147 0 -157 12 -194 70 -223 44 -22
131 -23 175 -2 54 25 65 62 65 218 l0 135 28 15 c26 15 25 15 -38 15 -56 -1
-61 -2 -37 -11 l28 -10 -3 -148 c-3 -141 -4 -150 -27 -174 -21 -22 -33 -26
-84 -26 -51 0 -62 4 -88 29 l-29 29 0 145 c0 139 1 144 23 155 18 9 8 11 -53
11 -61 0 -71 -2 -52 -11z"/>
<path d="M2130 1780 c12 -7 16 -42 18 -185 2 -119 0 -175 -7 -175 -6 0 -11 -4
-11 -10 0 -5 19 -10 42 -10 33 0 39 3 30 12 -8 8 -12 64 -12 185 0 153 2 173
18 182 13 8 4 10 -38 11 -38 0 -50 -3 -40 -10z"/>
<path d="M2279 1773 c11 -10 52 -96 91 -192 38 -96 72 -176 75 -179 10 -10 21
12 95 186 42 100 83 180 94 188 19 13 16 14 -34 14 -36 0 -50 -3 -41 -9 10 -6
12 -19 7 -41 -10 -55 -100 -270 -108 -262 -10 10 -108 270 -108 287 0 7 6 16
13 18 6 3 -14 6 -47 6 -57 1 -58 1 -37 -16z"/>
<path d="M3667 1778 c6 -7 13 -86 16 -174 5 -134 3 -165 -9 -183 -15 -21 -14
-21 32 -21 37 0 45 3 36 12 -17 17 -17 364 1 371 6 3 -10 6 -37 6 -37 1 -46
-2 -39 -11z"/>
<path d="M5458 1778 c21 -11 22 -16 22 -152 0 -157 6 -177 59 -213 26 -18 48
-23 95 -23 73 0 103 14 133 59 21 31 23 45 23 177 l0 142 28 10 c23 9 17 10
-38 11 -63 0 -64 0 -37 -15 l27 -15 0 -117 c0 -187 -19 -222 -118 -222 -62 0
-96 19 -111 62 -6 17 -11 86 -11 154 0 116 1 124 22 138 21 15 19 16 -47 15
-58 0 -66 -2 -47 -11z"/>
</g>
</svg>
